<svg width="3257" height="2292" viewBox="0 0 3257 2292" fill="none" xmlns="http://www.w3.org/2000/svg">
<path d="M1046 740.319C1173 552.321 1436.03 418.899 1647.5 371.819C1660.5 367.319 1678.5 358.319 1694 358.319C1956 500.772 2120 836.819 2120 836.819C2120 836.819 1601 1516.67 1601 2291.82C1510.5 1551.32 1491.5 1421.32 1046 740.319Z" fill="#00CE7C"/>
<path d="M1686.5 335.241C1472 398.242 1142.5 548.82 1043 704.82C1017.49 744.82 1004.08 675.743 907.5 591.32C855 545.428 636 243.818 0 22.8186C532.5 -16.1821 318.38 8.31982 861 8.31982C1475.5 113.82 1620.5 275.32 1686.5 335.241Z" fill="#3A73CF"/>
<path d="M2511 420.318C2311.22 543.318 2270.78 617.819 2125.78 803.819C1944 550.32 1704 170.82 1051.5 7.82003C1327.5 -0.179761 1160.9 9.31767 1679.5 9.31767C1920 43.3178 2276.5 183.816 2511 420.318Z" fill="#009BC9"/>
<path d="M3256.87 20.8184C3256.87 20.8184 2761 176.819 2535 403.319C2505.03 343.319 2388 263.319 2249.5 193.819C2662 38.3188 3256.87 20.8184 3256.87 20.8184Z" fill="#00CE7C"/>
<path d="M3254 12.32C3058 14.8197 2793.5 10.8197 2232.5 187.82C2140.5 95.82 2015 64.3194 1716 9.81935C2132 -1.6806 3074.5 -5.68021 3254 12.32Z" fill="#FFD300"/>
</svg>
