<svg width="32" height="32" viewBox="0 0 32 32" fill="blue" xmlns="http://www.w3.org/2000/svg">
	<path d="M15.063 29.1195C12.2674 29.1195 9.75736 28.3771 7.59176 26.9079C4.24576 24.6383 2.30616 21.5095 1.82656 17.6087C1.55736 15.4175 1.77096 13.3455 2.46176 11.4495C3.14656 9.56953 4.30856 7.84193 5.91496 6.31473C7.92536 4.40353 10.3822 3.25273 13.217 2.89473C15.931 2.55193 18.5498 3.02713 21.0006 4.30713C21.0958 4.35673 21.1822 4.40673 21.2582 4.45073C21.2862 4.46673 21.3134 4.48273 21.339 4.49713L22.0918 4.92193L21.7802 5.72833C21.7162 5.89393 21.651 6.05233 21.5878 6.20593C21.4642 6.50633 21.3474 6.78993 21.2686 7.06113C20.8438 8.52313 21.1742 9.82753 22.279 11.0483C22.6238 11.4295 22.7418 11.8679 22.6294 12.3507C22.299 13.7695 22.1062 15.3063 22.0046 17.3339C22.0002 17.4211 21.9894 17.4959 21.9818 17.5503C21.9798 17.5639 21.9778 17.5779 21.9762 17.5919L21.8526 18.5943L20.8514 18.4611C20.741 18.4463 20.6322 18.4303 20.5242 18.4143C20.315 18.3831 20.117 18.3539 19.9326 18.3399C19.3534 18.2967 18.9014 18.4695 18.5086 18.8843C17.7382 19.6975 17.537 20.6243 17.8758 21.8007C18.019 22.2975 18.2046 22.7875 18.4014 23.3059C18.547 23.6899 18.6978 24.0871 18.8322 24.4935C19.0322 25.0983 19.1602 25.6507 19.2242 26.1827C19.3326 27.0855 18.9038 27.9051 18.047 28.4315C17.385 28.8383 16.637 29.0639 15.8238 29.1023C15.5682 29.1143 15.3146 29.1203 15.0634 29.1203L15.063 29.1195ZM14.9038 4.78753C14.4286 4.78753 13.9502 4.81793 13.4674 4.87873C11.065 5.18233 8.98736 6.15273 7.29296 7.76393C4.52336 10.3967 3.35216 13.6267 3.81176 17.3643C4.21776 20.6671 5.86736 23.3211 8.71456 25.2523C10.7374 26.6243 13.0322 27.2299 15.7298 27.1031C16.2082 27.0807 16.6234 26.9575 16.9994 26.7263C17.2558 26.5687 17.2446 26.4759 17.2382 26.4203C17.191 26.0275 17.0882 25.5903 16.933 25.1203C16.8122 24.7551 16.6758 24.3951 16.5314 24.0143C16.329 23.4807 16.1198 22.9291 15.9542 22.3531C15.4226 20.5059 15.8038 18.8307 17.0574 17.5079C17.8566 16.6643 18.8942 16.2619 20.0602 16.3431C20.1694 14.7399 20.347 13.4207 20.6174 12.1843C19.9518 11.3975 19.4982 10.5535 19.2682 9.67233C19.0042 8.66113 19.0314 7.59433 19.3486 6.50233C19.4158 6.27073 19.4962 6.04993 19.5802 5.83553C18.083 5.13833 16.5166 4.78753 14.9042 4.78753H14.9038ZM20.7946 12.3883C20.7946 12.3883 20.7958 12.3895 20.7962 12.3899C20.7962 12.3899 20.7954 12.3887 20.795 12.3883H20.7946Z" fill="blue" />
	<path d="M26.8719 29.1117C26.8631 29.1117 26.8547 29.1117 26.8459 29.1117C26.1299 29.1021 25.4679 28.6933 25.0295 27.9901C24.7239 27.5001 24.4723 26.9141 24.2595 26.1993C23.9319 25.0981 23.7471 23.8853 23.6939 22.4909C23.6351 20.9449 23.6179 19.3605 23.6431 17.7825C23.6635 16.4929 23.8147 15.1821 24.1047 13.7753L24.3439 12.6145L25.4479 13.0457C26.4235 13.4269 27.3383 13.4253 28.3267 13.0405L29.4867 12.5889L29.6775 13.8193C29.7039 13.9885 29.7307 14.1549 29.7579 14.3197C29.8163 14.6777 29.8767 15.0481 29.9227 15.4197C30.1767 17.4673 30.2415 19.6217 30.1155 21.8233C30.0255 23.3973 29.8923 25.0701 29.3523 26.6913C29.1879 27.1845 28.9743 27.6317 28.7179 28.0197C28.2579 28.7153 27.5863 29.1121 26.8719 29.1121V29.1117ZM25.8711 15.2365C25.7315 16.1261 25.6563 16.9769 25.6431 17.8145C25.6187 19.3569 25.6351 20.9045 25.6927 22.4149C25.7391 23.6393 25.8975 24.6909 26.1767 25.6289C26.3375 26.1697 26.5175 26.5961 26.7271 26.9321C26.7939 27.0389 26.8483 27.0857 26.8751 27.1037C26.9091 27.0833 26.9751 27.0289 27.0499 26.9157C27.2075 26.6773 27.3475 26.3809 27.4551 26.0585C27.9183 24.6689 28.0335 23.2081 28.1191 21.7085C28.2379 19.6269 28.1771 17.5937 27.9379 15.6653C27.9203 15.5233 27.9003 15.3809 27.8787 15.2369C27.2087 15.3565 26.5383 15.3565 25.8711 15.2361V15.2365Z" fill="blue" />
	<path d="M26.8917 12.3535C26.2445 12.3535 25.5941 12.1851 24.9653 11.8471C23.5857 11.1051 22.8265 9.82234 22.8281 8.23514C22.8281 7.85554 22.9045 7.44714 23.0485 7.05394C23.6141 5.50874 24.5721 4.24834 25.8969 3.30754C26.4481 2.91594 27.0001 2.71474 27.5841 2.69194L28.4913 2.65674L28.6137 3.55634C28.6237 3.63074 28.6325 3.70394 28.6409 3.77594C28.6561 3.90394 28.6693 4.01474 28.6885 4.10834C28.7445 4.37594 28.8897 4.63234 29.1317 4.89194C29.3369 5.11154 29.5757 5.36594 29.8157 5.60314C30.6389 6.41634 31.0337 7.49794 30.9269 8.64874C30.8161 9.84314 30.1649 10.9511 29.1845 11.6135C28.4553 12.1059 27.6761 12.3535 26.8913 12.3535H26.8917ZM26.8937 5.05714C25.9885 5.74554 25.3273 6.64754 24.9269 7.74154C24.8633 7.91514 24.8285 8.09114 24.8281 8.23714C24.8273 9.09994 25.1721 9.68754 25.9129 10.0859C26.6577 10.4867 27.3417 10.4455 28.0657 9.95634C28.5473 9.63114 28.8809 9.05914 28.9361 8.46434C28.9717 8.08034 28.9097 7.51874 28.4109 7.02634C28.1441 6.76314 27.8889 6.49114 27.6701 6.25674C27.3221 5.88394 27.0621 5.48194 26.8937 5.05714Z" fill="blue" />
	<path d="M13.8811 12.0619H13.8759C13.1251 12.0607 12.4211 11.7675 11.8939 11.2367C11.3671 10.7063 11.0775 10.0007 11.0791 9.24913C11.0807 8.49753 11.3727 7.79313 11.9015 7.26553C12.4295 6.73873 13.1327 6.44873 13.8819 6.44873H13.8871C14.6367 6.44993 15.3415 6.74473 15.8723 7.27793C16.4019 7.81033 16.6923 8.51513 16.6895 9.26193C16.6843 10.8067 15.4247 12.0615 13.8807 12.0615L13.8811 12.0619ZM13.8823 8.04873C13.2087 8.04873 12.6807 8.57713 12.6791 9.25233C12.6783 9.57713 12.8027 9.88113 13.0287 10.1087C13.2543 10.3359 13.5563 10.4611 13.8787 10.4619H13.8807C14.5451 10.4619 15.0875 9.92153 15.0895 9.25673C15.0907 8.93753 14.9659 8.63593 14.7379 8.40673C14.5091 8.17673 14.2059 8.04953 13.8843 8.04913H13.8819L13.8823 8.04873Z" fill="blue" />
	<path d="M8.24018 17.3799H8.23178C6.68498 17.3755 5.43018 16.1123 5.43458 14.5639C5.43658 13.8147 5.73098 13.1111 6.26338 12.5827C6.79338 12.0567 7.49578 11.7671 8.24178 11.7671C8.24458 11.7671 8.24778 11.7671 8.25058 11.7671C9.79738 11.7719 11.0522 13.0347 11.0478 14.5827C11.0458 15.3315 10.7514 16.0351 10.219 16.5639C9.68898 17.0903 8.98658 17.3799 8.24018 17.3799ZM8.24218 13.3675C7.92138 13.3675 7.61898 13.4923 7.39098 13.7187C7.16218 13.9459 7.03578 14.2479 7.03498 14.5687C7.03298 15.2347 7.57218 15.7783 8.23698 15.7803H8.24058C8.56138 15.7803 8.86378 15.6555 9.09218 15.4291C9.32098 15.2019 9.44778 14.8999 9.44858 14.5787C9.45058 13.9131 8.91138 13.3699 8.24658 13.3679H8.24298L8.24218 13.3675Z" fill="blue" />
	<path d="M10.5644 24.1989C9.81805 24.1989 9.11565 23.9089 8.58525 23.3821C8.05285 22.8533 7.75885 22.1497 7.75685 21.4005C7.75485 20.6513 8.04485 19.9457 8.57365 19.4137C9.10245 18.8813 9.80645 18.5873 10.5552 18.5857H10.5616C12.1064 18.5857 13.3656 19.8393 13.37 21.3829C13.372 22.1321 13.082 22.8377 12.5536 23.3697C12.0248 23.9021 11.3212 24.1961 10.572 24.1981H10.5644V24.1989ZM10.5616 20.1861H10.5588C10.2376 20.1869 9.93565 20.3133 9.70845 20.5417C9.48085 20.7709 9.35605 21.0745 9.35685 21.3965C9.35765 21.7177 9.48405 22.0197 9.71285 22.2469C9.94125 22.4737 10.2436 22.5985 10.5644 22.5985H10.5676C10.8888 22.5977 11.1908 22.4713 11.4184 22.2421C11.646 22.0129 11.7708 21.7093 11.77 21.3873C11.768 20.7241 11.226 20.1853 10.5612 20.1853L10.5616 20.1861Z" fill="blue" />
</svg>
